# xmcd CD database file
#
# Track frame offsets:
#	150
#	27626
#	75000
#	109628
#	149075
#	180018
#	227556
#
# Disc length: 3417 seconds
#
# Revision: 0
# Processed by: cddbd v1.5PL3 Copyright (c) Steve Scherf et al.
# Submitted via: CDex 1.51
#
DISCID=490d5707
DTITLE=Avishai Cohen - The Trumpet Player
DYEAR=2003
DGENRE=Jazz
TTITLE0=The Fast
TTITLE1=The Trumpet Player
TTITLE2=Dear Lord
TTITLE3=Olympus
TTITLE4=Idaho
TTITLE5=Shablool
TTITLE6=Giggin'
EXTD=YEAR: 2003
EXTT0=
EXTT1=
EXTT2=
EXTT3=
EXTT4=
EXTT5=
EXTT6=
PLAYORDER=
